<?xml version="1.0" encoding="utf-8"?>
<!-- Generator: Adobe Illustrator 27.8.0, SVG Export Plug-In . SVG Version: 6.00 Build 0)  -->
<svg version="1.1" id="Layer_1" xmlns="http://www.w3.org/2000/svg" xmlns:xlink="http://www.w3.org/1999/xlink" x="0px" y="0px"
	 viewBox="0 0 3000 3000" style="enable-background:new 0 0 3000 3000;" xml:space="preserve">
<style type="text/css">
	.st0{fill:#FFFFFF;}
</style>
<g>
	<path class="st0" d="M1056.81,2491.55c0,0.06,0,0.13,0,0.19c-133.02,0-266.05,0-399.07,0c-31.72,0-63.44-0.4-95.15,0.11
		c-36.53,0.59-62.93,19.44-74.95,52.38c-10.67,29.23-0.52,62.48,26.01,85.23c13.64,11.69,27.1,23.59,40.94,35.03
		c99.29,82.14,207.73,149.96,324.59,203.93c148.84,68.74,305.27,110.37,468.55,125.27c132.6,12.1,264.53,6.39,395.82-16.52
		c127.74-22.29,250.55-60.4,368.67-113.39c124.85-56.01,240.51-127.36,346.48-214.02c131.51-107.56,241.91-233.6,330.25-378.92
		c66.86-110,118.18-226.76,153.52-350.46c38.79-135.75,57.27-274.41,57.36-415.54c0.03-48-32.64-80.75-81.21-80.84
		c-115.03-0.22-230.07-0.23-345.1,0c-49.67,0.1-80.59,32.06-82.54,81.43c-1.71,43.43-3.5,87.08-9.28,130.1
		c-18.82,140-66.7,269.88-141.42,389.77c-58.81,94.36-131.44,176.66-218.13,246.23c-84.23,67.6-176.6,120.95-278.33,158.1
		c-102.46,37.42-207.85,60.44-316.93,61.52C1370.21,2492.71,1213.51,2491.55,1056.81,2491.55z M1930.05,508.73
		c18.93,0,37.87,0,56.8,0c150.53,0,301.06,0.08,451.59-0.04c45.7-0.04,80.89-36.6,78.04-80.81c-1.75-27.09-17.5-45.8-37.18-62.68
		c-125.23-107.38-263.9-192.36-416.91-254.47c-147-59.67-299.5-95.15-457.42-106.85c-123.66-9.16-246.81-1.96-368.84,20.02
		c-167.31,30.14-325.29,86.59-473.42,170.38c-121.8,68.9-231.91,153.03-330.3,252.43c-85.55,86.42-159.76,181.88-221.54,286.53
		c-68.92,116.74-121.96,240.6-157.53,371.57C18.63,1232.63,0.6,1362.88,0.26,1495.4c-0.13,49.58,32.36,81.26,82.18,81.28
		c114.08,0.07,228.16,0.07,342.24,0.02c52.04-0.02,82.16-30.72,84.13-82.44c1.65-43.45,3.65-87.1,9.37-130.15
		c15.4-115.81,51.8-225.37,106.57-328.4c62.65-117.86,145.51-219.79,249.41-303.86c127.05-102.8,271.06-170.3,431.1-203.53
		c74.01-15.36,148.96-19.68,224.33-19.62C1663.07,508.8,1796.56,508.73,1930.05,508.73z M823.85,1780.03c0-0.05,0-0.1,0-0.16
		c-184.16,0-368.32-0.09-552.48,0.06c-53,0.04-106.07-0.76-158.97,1.7c-42.98,2-75.78,47.89-64.71,89.14
		c12.46,46.41,25.78,92.74,41.79,138.01c26.63,75.29,61.2,147.12,98.69,217.7c20.19,38.02,45.07,62.61,91.67,62.53
		c403.83-0.67,807.66-0.45,1211.49-0.39c77.96,0.01,154.33-9.86,229.25-32.16c109.86-32.69,208.62-85.53,295.03-160.72
		c102.22-88.95,176.98-197.34,224.15-324.35c32.05-86.31,47.29-175.91,48.19-267.92c0.44-45.33-31.98-79.05-78.35-79.31
		c-117.41-0.65-234.82-0.48-352.22-0.1c-45.58,0.15-77.26,36.4-76.87,74.7c0.17,16.39-2.63,32.94-5.4,49.19
		c-11.96,70.13-46.65,127-101.98,171.31c-55.17,44.17-118.87,61.16-188.84,60.97C1264.13,1779.65,1043.99,1780.03,823.85,1780.03z
		 M2176.83,1220.15c211.14,0,422.28,0.03,633.43-0.04c24.61-0.01,49.3,0.68,73.8-1.07c50.06-3.57,80.55-48.19,67.46-96.67
		c-31.75-117.58-75.53-230.36-134.19-337.22c-3.86-7.03-8.04-13.91-11.51-21.14c-17.73-36.92-47.17-52.23-87.82-52.19
		c-382.52,0.42-765.04,0.13-1147.55,0.41c-43.97,0.03-87.97,1.51-131.89,3.76c-79,4.04-155.16,22.33-228.25,51.85
		c-146.08,59.01-265.52,152.42-355.9,281.92c-93.89,134.53-140.49,284.28-142.2,448.09c-0.45,43.07,31.57,78.24,73.07,78.48
		c120.72,0.69,241.44,0.58,362.16-0.02c36.75-0.18,67.36-29.66,71.55-66.24c1.99-17.37,2.28-35,5.21-52.19
		c15.92-93.33,65.91-162.49,149.76-206.4c44.43-23.27,92.47-31.56,142.46-31.5C1736.56,1220.28,1956.69,1220.12,2176.83,1220.15z"/>
	<path d="M1056.81,2491.55c156.69,0,313.4,1.16,470.07-0.4c109.08-1.09,214.46-24.1,316.93-61.52
		c101.73-37.16,194.11-90.51,278.33-158.1c86.7-69.58,159.33-151.88,218.13-246.23c74.72-119.89,122.6-249.76,141.42-389.77
		c5.78-43.01,7.57-86.66,9.28-130.1c1.95-49.36,32.87-81.33,82.54-81.43c115.03-0.23,230.07-0.22,345.1,0
		c48.57,0.09,81.24,32.84,81.21,80.84c-0.1,141.13-18.57,279.78-57.36,415.54c-35.35,123.7-86.66,240.46-153.52,350.46
		c-88.33,145.32-198.74,271.36-330.25,378.92c-105.97,86.67-221.63,158.01-346.48,214.02c-118.12,52.99-240.93,91.1-368.67,113.39
		c-131.29,22.91-263.22,28.61-395.82,16.52c-163.28-14.9-319.71-56.53-468.55-125.27c-116.85-53.97-225.3-121.79-324.59-203.93
		c-13.84-11.45-27.3-23.34-40.94-35.03c-26.53-22.75-36.68-56-26.01-85.23c12.02-32.94,38.42-51.79,74.95-52.38
		c31.71-0.51,63.43-0.11,95.15-0.11c133.02,0,266.05,0,399.07,0C1056.81,2491.68,1056.81,2491.61,1056.81,2491.55z"/>
	<path d="M1930.05,508.73c-133.49,0-266.98,0.07-400.47-0.03c-75.37-0.06-150.32,4.26-224.33,19.62
		c-160.04,33.23-304.05,100.73-431.1,203.53c-103.9,84.07-186.75,186-249.41,303.86c-54.77,103.03-91.16,212.59-106.57,328.4
		c-5.72,43.05-7.72,86.69-9.37,130.15c-1.96,51.73-32.08,82.42-84.13,82.44c-114.08,0.05-228.16,0.05-342.24-0.02
		c-49.82-0.03-82.3-31.7-82.18-81.28c0.34-132.53,18.36-262.77,53.08-390.6c35.57-130.97,88.61-254.83,157.53-371.57
		c61.78-104.65,136-200.11,221.54-286.53c98.4-99.4,208.5-183.52,330.3-252.43c148.13-83.8,306.11-140.24,473.42-170.38
		c122.03-21.99,245.18-29.18,368.84-20.02c157.91,11.7,310.41,47.18,457.42,106.85c153.01,62.11,291.67,147.09,416.91,254.47
		c19.68,16.87,35.43,35.59,37.18,62.68c2.85,44.22-32.34,80.77-78.04,80.81c-150.53,0.12-301.06,0.04-451.59,0.04
		C1967.92,508.73,1948.98,508.73,1930.05,508.73z"/>
	<path d="M823.85,1780.03c220.14,0,440.28-0.37,660.42,0.22c69.97,0.19,133.67-16.8,188.84-60.97
		c55.34-44.3,90.03-101.18,101.98-171.31c2.77-16.25,5.57-32.81,5.4-49.19c-0.39-38.31,31.29-74.56,76.87-74.7
		c117.41-0.38,234.82-0.55,352.22,0.1c46.37,0.26,78.8,33.97,78.35,79.31c-0.89,92.01-16.13,181.61-48.19,267.92
		c-47.17,127.01-121.93,235.41-224.15,324.35c-86.41,75.19-185.17,128.03-295.03,160.72c-74.92,22.3-151.3,32.17-229.25,32.16
		c-403.83-0.07-807.66-0.29-1211.49,0.39c-46.6,0.08-71.48-24.51-91.67-62.53c-37.49-70.58-72.06-142.41-98.69-217.7
		c-16.01-45.28-29.33-91.6-41.79-138.01c-11.07-41.25,21.73-87.14,64.71-89.14c52.9-2.46,105.98-1.66,158.97-1.7
		c184.16-0.15,368.32-0.06,552.48-0.06C823.85,1779.92,823.85,1779.98,823.85,1780.03z"/>
	<path d="M2176.83,1220.14c-220.14-0.01-440.28,0.15-660.41-0.13c-49.99-0.06-98.03,8.23-142.46,31.5
		c-83.85,43.91-133.84,113.08-149.76,206.4c-2.93,17.19-3.22,34.82-5.21,52.19c-4.19,36.58-34.8,66.06-71.55,66.24
		c-120.72,0.6-241.44,0.71-362.16,0.02c-41.5-0.24-73.52-35.41-73.07-78.48c1.7-163.81,48.3-313.57,142.2-448.09
		c90.39-129.51,209.83-222.91,355.9-281.92c73.09-29.53,149.25-47.82,228.25-51.85c43.92-2.24,87.92-3.72,131.89-3.76
		c382.52-0.28,765.04,0.01,1147.55-0.41c40.65-0.05,70.08,15.26,87.82,52.19c3.47,7.22,7.65,14.1,11.51,21.14
		c58.67,106.86,102.45,219.64,134.19,337.22c13.09,48.48-17.4,93.1-67.46,96.67c-24.5,1.75-49.2,1.06-73.8,1.07
		C2599.12,1220.17,2387.97,1220.15,2176.83,1220.14z"/>
</g>
<g>
</g>
<g>
</g>
<g>
</g>
<g>
</g>
<g>
</g>
<g>
</g>
<g>
</g>
<g>
</g>
<g>
</g>
<g>
</g>
<g>
</g>
<g>
</g>
<g>
</g>
<g>
</g>
<g>
</g>
</svg>
