<?xml version="1.0" encoding="UTF-8"?><svg id="Layer_1" xmlns="http://www.w3.org/2000/svg" xmlns:xlink="http://www.w3.org/1999/xlink" viewBox="0 0 2657.74 2230.85"><defs><style>.cls-1{fill:url(#linear-gradient);}.cls-1,.cls-2,.cls-3,.cls-4,.cls-5,.cls-6,.cls-7,.cls-8{stroke-width:0px;}.cls-9,.cls-10{fill:none;stroke:#000;stroke-miterlimit:10;}.cls-2{fill:url(#linear-gradient-4);}.cls-3{fill:url(#linear-gradient-2);}.cls-4{fill:url(#linear-gradient-3);}.cls-5{fill:url(#linear-gradient-8);}.cls-6{fill:url(#linear-gradient-7);}.cls-7{fill:url(#linear-gradient-5);}.cls-8{fill:url(#linear-gradient-6);}.cls-10{stroke-width:.5px;}</style><linearGradient id="linear-gradient" x1="406.15" y1="1118.08" x2="800.37" y2="1118.08" gradientUnits="userSpaceOnUse"><stop offset="0" stop-color="#048759"/><stop offset="1" stop-color="#1aae74"/></linearGradient><linearGradient id="linear-gradient-2" x1="569.07" y1="1007.86" x2="2214.88" y2="1007.86" xlink:href="#linear-gradient"/><linearGradient id="linear-gradient-3" x1="846.67" y1="1052.11" x2="2237.12" y2="1052.11" xlink:href="#linear-gradient"/><linearGradient id="linear-gradient-4" x1="0" y1="353.19" x2="2634.27" y2="353.19" xlink:href="#linear-gradient"/><linearGradient id="linear-gradient-5" x1="455.77" y1="291.67" x2="2657.74" y2="291.67" xlink:href="#linear-gradient"/><linearGradient id="linear-gradient-6" x1="958.58" y1="1771.89" x2="1795.13" y2="1771.89" xlink:href="#linear-gradient"/><linearGradient id="linear-gradient-7" x1="819.36" y1="1888.08" x2="1194.39" y2="1888.08" xlink:href="#linear-gradient"/><linearGradient id="linear-gradient-8" x1="1236.38" y1="1814.91" x2="1821.78" y2="1814.91" xlink:href="#linear-gradient"/></defs><line class="cls-9" x1="1304.2" y1="552.21" x2="1304.2" y2="552.17"/><path class="cls-10" d="m1027.74,1516.44v.04s-.04.07-.04.11c-2.33-.11-4.66-.14-7.03-.14h7.06Z"/><path class="cls-9" d="m1027.74,1516.44v.04s-.04.07-.04.11c-2.33-.11-4.66-.14-7.03-.14h7.06Z"/><path class="cls-1" d="m796.37,1305.62c-70.7,21.26-123.68,78.4-139.57,150.27l-19.7-36.49c15.94-71.6,70.05-128.81,139.85-149.17.14-.07.28-.11.42-.14l-233.48-460.92-19.14-37.82c-54.21,24.44-95.64,72.22-111.53,130.53-4.63,16.88-7.06,34.65-7.06,53.01,0,21.65,3.43,42.52,9.78,62.05v.04l.03.07v.04l.04.07c5.33,16.46,12.71,32,21.9,46.27,2.86,4.45,5.9,8.79,9.11,13,1.06,1.41,2.15,2.83,3.28,4.2l.04.11,14.73,27.26,27.97,51.74,33.34,61.7,22,40.72,2.44,4.52,64.01,118.49-.18.15,42.97,79.53h.97s.69-3.5.69-3.5c14.45-73.5,68.13-132.09,140.14-152.92l.96-.28-4.49-3.48.49.97Z"/><path class="cls-3" d="m1998.77,750.04s-1310.76,3.36-1387.79,3.53h-3.53c-13.14,0-25.96,1.27-38.39,3.64l18.97,37.47,236.87,467.63c1.13-.04,2.26-.07,3.43-.11,1.7-.04,3.43-.07,5.16-.07h63.57l1035.43,3.53,162.39-296.49.07-.14c16.63-25.71,31.43-52.69,44.25-80.77v-.04l53.43-97.58,1.94-3.53,20.31-37.08h-216.11Z"/><path class="cls-4" d="m2232.2,796.48l-72.8,132.9-.21.42v.07c-12.68,27.69-27.44,54.67-44.11,80.45l-161.89,295.57-1034.37-3.53h-63.57c-.9,0-1.77.04-2.66.05l-5.91,3.66h.06c2.79-.11,5.65-.18,8.51-.18h63.57l1036.49,3.53,162.88-297.44c16.67-25.78,31.61-53.05,44.36-80.98l74.58-136.21-4.92,1.69Z"/><path class="cls-2" d="m439.31,508.57h1916.41L2634.27,0H201.31C90.13,0,0,90.13,0,201.31c0,27.16,5.37,53.08,15.15,76.71,5.3,12.93,11.94,25.15,19.74,36.55l104.82,194,46.58,86.24-.52.26,60.14,111.32,1.06-4.59c18.05-78.69,83.7-139.89,163.24-152.32l-1.8-3.25c-78.93,12.89-144.13,72.82-163.8,150.31l-19.49-36.08c19.55-77.43,83.93-137.03,163.94-149.48L198.8,135.34l40.97-20.73,199.54,393.96Z"/><polygon class="cls-7" points="2652.44 38.55 2375.85 543.5 460.43 543.5 455.77 543.71 457.5 547.17 460.5 547.03 2377.97 547.03 2657.74 36.18 2652.44 38.55"/><path class="cls-8" d="m1516.62,2024.99l278.51-508.57h-774.47c-21.65,0-42.52,3.43-62.09,9.78l253.82,501.15c10.03-1.55,20.31-2.37,30.76-2.37h273.46Z"/><path class="cls-6" d="m1188.45,2081.39c-59.36,25.24-103.1,76.92-118.04,139.44l-22.78-42.13c15.31-63.17,60.34-114.74,119.59-138.88l-250.47-494.51c-43.72,26.38-76.57,68.9-90.31,119.3-4.63,16.92-7.1,34.72-7.1,53.12,0,23.66,4.1,46.37,11.62,67.46,6.92,19.57,16.81,37.72,29.1,53.93l82.96,153.52v.04l17.48,32.32,85.86,158.82s0-.02,0-.03l25.44,47.07,1-4.68c13.82-64.44,58.6-117.79,119.79-142.72l1.78-.72-.19-.37-5.75-.96Z"/><path class="cls-5" d="m1815.76,1562.22l-275.46,502.99h-272.42c-9.74,0-19.54.72-29.16,2.11l-2.35,3.92,1.02-.16c10.04-1.56,20.29-2.35,30.49-2.35h274.51l279.39-510.17c-2,1.21-4.01,2.43-6.02,3.65Z"/></svg>