<?xml version="1.0" encoding="UTF-8"?><svg id="Layer_1" xmlns="http://www.w3.org/2000/svg" xmlns:xlink="http://www.w3.org/1999/xlink" viewBox="0 0 2916.96 2952.49"><defs><style>.cls-1{fill:url(#linear-gradient);stroke:#000;stroke-miterlimit:10;stroke-width:.25px;}</style><linearGradient id="linear-gradient" x1="2599.26" y1="2386.08" x2="143.76" y2="-69.43" gradientUnits="userSpaceOnUse"><stop offset="0" stop-color="#06b6d4"/><stop offset=".5" stop-color="#0ea5e9"/><stop offset="1" stop-color="#3b82f6"/></linearGradient></defs><path class="cls-1" d="m1.84,1232.06c0-358.17-.04-716.33.02-1074.5C1.88,44.14,45.81.26,158.61.3c107.85.03,215.7-.35,323.55-.08,93.74.23,142.86,49.29,143.04,143.22.39,209.04.62,418.08.19,627.12-.09,41.4,7.44,78.55,50,95.2,42.48,16.61,75.02-5.55,102.38-35.25,223.71-242.79,447.5-485.51,670.2-729.22,57.08-62.46,122.3-95.48,209.82-95.01,398.1,2.16,796.21.45,1194.32.2,58.59-.04,80.47,37.13,52.91,89.8-10.58,20.23-25.31,37.38-41.19,53.64-94.9,97.14-190.45,193.67-284.31,291.8-53.08,55.5-116.5,80.4-192.69,79.87-161.1-1.11-322.22.48-483.32-.91-58.02-.5-104.85,16.15-145.22,60.18-97.15,105.96-197.28,209.2-296.17,313.57-4.57,4.83-9.67,9.43-13.11,15.01-10.04,16.28-29.45,30.48-17.99,53.03,10.97,21.6,32.7,19.57,52.71,19.55,214.37-.12,428.73-.32,643.1-.38,87.29-.02,129.46,42.06,129.76,129.6.26,74.56.16,149.12.1,223.69-.07,97.9-46.41,145.16-143.38,145.21-275.61.13-551.23-.08-826.84-.09-14.64,0-29.49-.99-43.88,1.06-51.75,7.38-76.35,51.25-57.43,100.08,6.9,17.81,17.99,32.58,30.93,46.07,163.14,170.05,326,340.36,489.83,509.74,44.84,46.36,87.08,49.29,138.18,10.12,89.21-68.38,86.37-59.1,158.56,14.94,39.03,40.02,78.88,79.4,115.56,121.5,35.47,40.71,32.92,61.45-4.68,99.35-6.56,6.61-13.39,12.96-20,19.54-41.7,41.57-44.45,71.47-6.56,118.2,23.39,28.85,50.58,54.62,76.11,81.73,15.51,16.47,32.18,32,46.49,49.45,42.69,52.06,42.24,75.53-3.42,124-41.08,43.6-83.12,86.32-125.42,128.74-63.72,63.89-110.19,63.62-173.64-.34-324.42-327.06-648.79-654.18-973.2-981.26-63.76-64.28-127.48-128.6-191.51-192.59-22-21.98-45.59-44.64-80.1-29.95-33.4,14.21-36.79,44.61-36.72,77.09.56,248.98.41,497.97.44,746.95,0,105.72-52.9,157.69-159.49,161.03-88.79,2.78-175.88-.24-255.54-46.11C76.53,2561.99-1.18,2452.94.14,2290.57c2.87-352.82.88-705.67.88-1058.51h.81Z"/></svg>